<?xml version="1.0" encoding="UTF-8"?>
<svg id="Layer_1" data-name="Layer 1" xmlns="http://www.w3.org/2000/svg" viewBox="0 0 729.42 729.42">
  <defs>
    <style>
      .cls-1 {
        fill: #efefef;
      }
    </style>
  </defs>
  <path class="cls-1" d="M34.07,210.59c1.25-2.68,2.53-5.33,3.84-7.97-1.31,2.64-2.59,5.3-3.84,7.97Z"/>
  <path class="cls-1" d="M230.98,25.3c2.76-1.09,5.54-2.14,8.33-3.17-2.79,1.02-5.57,2.08-8.33,3.17Z"/>
  <path class="cls-1" d="M2.93,318.26c1.35-10.65,3.17-21.15,5.42-31.49-2.25,10.34-4.06,20.85-5.42,31.49Z"/>
  <path class="cls-1" d="M364.71,0c-14.16,0-28.14.81-41.88,2.38,13.74-1.57,27.72-2.38,41.88-2.38h0Z"/>
  <path class="cls-1" d="M286.77,8.35c10.34-2.25,20.85-4.06,31.49-5.42-10.65,1.35-21.15,3.17-31.49,5.42Z"/>
  <path class="cls-1" d="M260.55,15.09c7.17-2.13,14.44-4.05,21.79-5.75-7.35,1.7-14.62,3.62-21.79,5.75Z"/>
  <path class="cls-1" d="M0,364.71h0c0-14.16.81-28.14,2.38-41.88-1.57,13.74-2.38,27.72-2.38,41.88Z"/>
  <path class="cls-1" d="M28.66,222.75c1.15-2.73,2.34-5.44,3.56-8.13-1.22,2.69-2.4,5.4-3.56,8.13Z"/>
  <path class="cls-1" d="M22.13,239.31c1.02-2.79,2.08-5.57,3.17-8.33-1.09,2.76-2.14,5.54-3.17,8.33Z"/>
  <path class="cls-1" d="M9.34,282.35c1.7-7.35,3.62-14.62,5.75-21.79-2.13,7.17-4.05,14.44-5.75,21.79Z"/>
  <path class="cls-1" d="M150.03,69.85c2.36-1.72,4.75-3.42,7.15-5.08-2.4,1.67-4.79,3.36-7.15,5.08Z"/>
  <path class="cls-1" d="M80.51,136.12c2.75-3.41,5.55-6.77,8.42-10.08-2.87,3.31-5.67,6.67-8.42,10.08Z"/>
  <path class="cls-1" d="M64.77,157.18c1.67-2.4,3.36-4.79,5.08-7.15-1.72,2.36-3.42,4.75-5.08,7.15Z"/>
  <path class="cls-1" d="M46.15,187.01c1.43-2.56,2.9-5.11,4.39-7.64-1.49,2.53-2.96,5.07-4.39,7.64Z"/>
  <path class="cls-1" d="M119.49,94.75c-8.64,7.85-16.89,16.11-24.74,24.74,7.85-8.64,16.11-16.89,24.74-24.74Z"/>
  <path class="cls-1" d="M55.11,171.85c2.33-3.73,4.72-7.41,7.18-11.05-2.46,3.64-4.85,7.32-7.18,11.05Z"/>
  <path class="cls-1" d="M160.8,62.29c3.64-2.46,7.32-4.85,11.05-7.18-3.73,2.33-7.41,4.72-11.05,7.18Z"/>
  <path class="cls-1" d="M126.03,88.94c3.31-2.87,6.67-5.67,10.08-8.42-3.41,2.75-6.77,5.55-10.08,8.42Z"/>
  <path class="cls-1" d="M202.62,37.91c2.64-1.31,5.3-2.59,7.97-3.84-2.68,1.25-5.33,2.53-7.97,3.84Z"/>
  <path class="cls-1" d="M179.37,50.54c2.53-1.49,5.07-2.96,7.64-4.39-2.56,1.43-5.11,2.9-7.64,4.39Z"/>
  <path class="cls-1" d="M214.62,32.22c2.69-1.22,5.4-2.4,8.13-3.56-2.73,1.15-5.44,2.34-8.13,3.56Z"/>
  <path class="cls-1" d="M709,244.09c.14.4.28.8.41,1.2-.14-.4-.27-.8-.41-1.2Z"/>
  <path class="cls-1" d="M704.38,231.65c.13.33.26.67.39,1-.13-.33-.26-.67-.39-1Z"/>
  <path class="cls-1" d="M707.51,239.92c.14.38.27.76.41,1.14-.14-.38-.27-.76-.41-1.14Z"/>
  <path class="cls-1" d="M710.44,248.29c.14.42.28.84.42,1.26-.14-.42-.28-.84-.42-1.26Z"/>
  <path class="cls-1" d="M705.97,235.77c.13.36.27.71.4,1.07-.13-.36-.26-.71-.4-1.07Z"/>
  <path class="cls-1" d="M713.17,256.75c.14.47.28.93.43,1.4-.14-.47-.28-.94-.43-1.4Z"/>
  <path class="cls-1" d="M715.71,265.3c.14.51.28,1.02.42,1.53-.14-.51-.28-1.02-.42-1.53Z"/>
  <path class="cls-1" d="M716.9,269.62c.14.53.28,1.06.42,1.59-.14-.53-.28-1.06-.42-1.59Z"/>
  <path class="cls-1" d="M718.04,273.95c.14.55.27,1.09.41,1.64-.14-.55-.27-1.09-.41-1.64Z"/>
  <path class="cls-1" d="M711.83,252.51c.14.44.28.88.42,1.33-.14-.44-.28-.88-.42-1.33Z"/>
  <path class="cls-1" d="M702.75,227.55c.13.31.25.63.38.94-.13-.31-.25-.63-.38-.94Z"/>
  <path class="cls-1" d="M714.47,261.01c.15.49.29.98.43,1.47-.14-.49-.28-.98-.43-1.47Z"/>
  <path class="cls-1" d="M691.96,203.53c.08.16.16.32.24.49-.08-.16-.16-.32-.24-.49Z"/>
  <path class="cls-1" d="M685.95,191.88c.05.09.09.18.14.26-.05-.09-.09-.18-.14-.26Z"/>
  <path class="cls-1" d="M688,195.74c.06.11.12.22.17.33-.06-.11-.11-.22-.17-.33Z"/>
  <path class="cls-1" d="M701.06,223.48c.12.29.24.57.36.86-.12-.29-.24-.57-.36-.86Z"/>
  <path class="cls-1" d="M683.86,188.06c.03.06.07.12.1.18-.03-.06-.07-.12-.1-.18Z"/>
  <path class="cls-1" d="M679.55,180.51s0,.01,0,.02c0,0,0-.01,0-.02Z"/>
  <path class="cls-1" d="M690,199.62c.07.14.14.28.21.42-.07-.14-.14-.28-.21-.42Z"/>
  <path class="cls-1" d="M699.33,219.43c.11.26.23.53.34.79-.11-.26-.23-.53-.34-.79Z"/>
  <path class="cls-1" d="M719.12,278.31c.14.56.27,1.12.4,1.69-.13-.56-.26-1.12-.4-1.69Z"/>
  <path class="cls-1" d="M697.56,215.42c.11.24.21.48.32.71-.11-.24-.21-.48-.32-.71Z"/>
  <path class="cls-1" d="M693.87,207.46c.09.19.18.37.26.56-.09-.19-.18-.37-.26-.56Z"/>
  <path class="cls-1" d="M695.74,211.43c.1.21.19.42.29.63-.1-.21-.19-.42-.29-.63Z"/>
  <path class="cls-1" d="M681.73,184.27s.03.06.05.09c-.02-.03-.03-.06-.05-.09Z"/>
  <path class="cls-1" d="M722.95,295.94c.12.64.24,1.29.36,1.94-.12-.65-.24-1.29-.36-1.94Z"/>
  <path class="cls-1" d="M729.16,350.66c.03.9.06,1.81.09,2.71-.03-.9-.05-1.81-.09-2.71Z"/>
  <path class="cls-1" d="M725.25,309.38c.11.7.2,1.4.31,2.09-.1-.7-.2-1.4-.31-2.09Z"/>
  <path class="cls-1" d="M729.3,355.33c.03,1.06.04,2.12.06,3.19-.02-1.06-.03-2.13-.06-3.19Z"/>
  <path class="cls-1" d="M727.99,332.14c.07.79.13,1.59.2,2.38-.07-.79-.13-1.59-.2-2.38Z"/>
  <path class="cls-1" d="M724.54,304.89c.11.67.21,1.33.32,2-.11-.67-.21-1.34-.32-2Z"/>
  <path class="cls-1" d="M728.95,346.01c.04.84.08,1.68.11,2.52-.04-.84-.07-1.68-.11-2.52Z"/>
  <path class="cls-1" d="M722.07,291.51c.13.62.24,1.24.37,1.86-.12-.62-.24-1.24-.37-1.86Z"/>
  <path class="cls-1" d="M728.36,336.75c.06.8.11,1.61.17,2.41-.06-.8-.11-1.61-.17-2.41Z"/>
  <path class="cls-1" d="M723.77,300.4c.12.66.23,1.32.34,1.97-.11-.66-.22-1.32-.34-1.97Z"/>
  <path class="cls-1" d="M728.69,341.37c.05.82.09,1.64.14,2.47-.05-.82-.09-1.64-.14-2.47Z"/>
  <path class="cls-1" d="M727.55,327.56c.08.77.15,1.54.22,2.31-.07-.77-.14-1.54-.22-2.31Z"/>
  <path class="cls-1" d="M726.51,318.44c.09.72.17,1.44.26,2.16-.09-.72-.17-1.44-.26-2.16Z"/>
  <path class="cls-1" d="M727.06,322.99c.08.74.16,1.49.24,2.23-.08-.74-.16-1.49-.24-2.23Z"/>
  <path class="cls-1" d="M720.16,282.69c.13.58.26,1.17.39,1.76-.13-.58-.26-1.17-.39-1.76Z"/>
  <path class="cls-1" d="M729.42,364.71c0-1.57,0-3.13-.03-4.7.02,1.56.03,3.13.03,4.7h0Z"/>
  <path class="cls-1" d="M725.91,313.9c.1.71.19,1.43.29,2.14-.1-.71-.19-1.43-.29-2.14Z"/>
  <path class="cls-1" d="M721.14,287.09c.13.6.25,1.2.38,1.8-.13-.6-.25-1.2-.38-1.8Z"/>
  <path class="cls-1" d="M257.73,713.47c-.39-.12-.77-.23-1.16-.35.39.12.77.23,1.16.35Z"/>
  <path class="cls-1" d="M329.56,727.74c-.68-.07-1.36-.13-2.04-.19.68.07,1.36.13,2.04.19Z"/>
  <path class="cls-1" d="M240.59,707.75c-.3-.11-.6-.21-.9-.32.3.11.6.21.9.32Z"/>
  <path class="cls-1" d="M262.09,714.78c-.42-.12-.83-.24-1.25-.36.41.12.83.24,1.25.36Z"/>
  <path class="cls-1" d="M334.28,728.16c-.72-.06-1.45-.12-2.17-.18.72.06,1.45.12,2.17.18Z"/>
  <path class="cls-1" d="M227.99,702.92c-.23-.09-.46-.18-.69-.28.23.09.46.19.69.28Z"/>
  <path class="cls-1" d="M236.37,706.19c-.28-.1-.56-.21-.84-.31.28.11.56.21.84.31Z"/>
  <path class="cls-1" d="M352.85,729.22c-.74-.02-1.47-.04-2.21-.07.73.03,1.47.05,2.21.07Z"/>
  <path class="cls-1" d="M348.18,729.05c-.73-.03-1.46-.06-2.19-.1.73.04,1.46.06,2.19.1Z"/>
  <path class="cls-1" d="M362.38,729.41c-.79,0-1.58,0-2.37-.02.79.01,1.58.01,2.37.02Z"/>
  <path class="cls-1" d="M357.72,729.35c-.8-.02-1.6-.03-2.4-.05.8.02,1.6.03,2.4.05Z"/>
  <path class="cls-1" d="M219.66,699.43c-.17-.07-.34-.14-.51-.22.17.07.34.14.51.22Z"/>
  <path class="cls-1" d="M253.41,712.12c-.37-.12-.73-.23-1.1-.35.36.12.73.23,1.1.35Z"/>
  <path class="cls-1" d="M223.82,701.21c-.2-.08-.41-.17-.61-.25.2.09.41.17.61.25Z"/>
  <path class="cls-1" d="M338.92,728.52c-.74-.05-1.47-.1-2.21-.15.73.06,1.47.1,2.21.15Z"/>
  <path class="cls-1" d="M343.56,728.81c-.74-.04-1.48-.08-2.22-.13.74.05,1.48.08,2.22.13Z"/>
  <path class="cls-1" d="M244.85,709.26c-.33-.11-.65-.22-.98-.34.33.11.65.22.98.34Z"/>
  <path class="cls-1" d="M249.13,710.72c-.35-.12-.7-.23-1.04-.35.35.12.7.23,1.04.35Z"/>
  <path class="cls-1" d="M311.19,725.52c-.63-.09-1.26-.18-1.89-.28.63.1,1.26.18,1.89.28Z"/>
  <path class="cls-1" d="M211.5,695.77c-.13-.06-.25-.11-.38-.17.13.06.25.11.38.17Z"/>
  <path class="cls-1" d="M293.1,722.39c-.57-.11-1.14-.22-1.71-.34.57.12,1.14.22,1.71.34Z"/>
  <path class="cls-1" d="M199.42,689.9s-.1-.05-.15-.07c.05.02.1.05.15.07Z"/>
  <path class="cls-1" d="M288.61,721.46c-.55-.12-1.09-.23-1.64-.35.55.12,1.09.23,1.64.35Z"/>
  <path class="cls-1" d="M302.13,724.06c-.61-.1-1.21-.21-1.82-.31.6.11,1.21.21,1.82.31Z"/>
  <path class="cls-1" d="M315.8,726.16c-.66-.09-1.32-.17-1.97-.26.66.09,1.32.18,1.97.26Z"/>
  <path class="cls-1" d="M306.61,724.81c-.6-.1-1.21-.19-1.81-.29.6.1,1.21.19,1.81.29Z"/>
  <path class="cls-1" d="M203.42,691.9c-.08-.04-.15-.07-.23-.11.08.04.15.07.23.11Z"/>
  <path class="cls-1" d="M297.64,723.26c-.6-.11-1.2-.22-1.8-.33.6.11,1.2.22,1.8.33Z"/>
  <path class="cls-1" d="M207.42,693.85c-.09-.04-.19-.09-.28-.13.09.04.19.09.28.13Z"/>
  <path class="cls-1" d="M284.13,720.48c-.52-.12-1.04-.23-1.57-.35.52.12,1.04.23,1.57.35Z"/>
  <path class="cls-1" d="M320.38,726.75c-.67-.08-1.34-.16-2.01-.24.67.08,1.34.16,2.01.24Z"/>
  <path class="cls-1" d="M275.26,718.36c-.48-.12-.97-.24-1.45-.36.48.12.97.24,1.45.36Z"/>
  <path class="cls-1" d="M266.47,716.03c-.44-.12-.89-.24-1.33-.37.44.13.89.24,1.33.37Z"/>
  <path class="cls-1" d="M232.17,704.58c-.26-.1-.51-.2-.77-.3.26.1.51.2.77.3Z"/>
  <path class="cls-1" d="M324.96,727.27c-.68-.07-1.35-.14-2.03-.22.67.08,1.35.15,2.03.22Z"/>
  <path class="cls-1" d="M215.57,697.63c-.15-.07-.3-.13-.45-.2.15.07.3.13.45.2Z"/>
  <path class="cls-1" d="M270.84,717.22c-.46-.12-.92-.24-1.38-.36.46.12.92.24,1.38.36Z"/>
  <path class="cls-1" d="M195.44,687.84s-.05-.02-.07-.04c.02.01.05.02.07.04Z"/>
  <path class="cls-1" d="M279.67,719.45c-.5-.12-1-.23-1.49-.35.5.12.99.24,1.49.35Z"/>
  <path class="cls-1" d="M243.88,708.93c-1.1-.39-2.19-.78-3.28-1.17,1.09.4,2.19.79,3.28,1.17Z"/>
  <path class="cls-1" d="M235.53,705.88c-1.12-.43-2.24-.86-3.36-1.3,1.12.44,2.24.87,3.36,1.3Z"/>
  <path class="cls-1" d="M252.31,711.77c-1.07-.34-2.13-.7-3.19-1.05,1.06.35,2.12.71,3.19,1.05Z"/>
  <path class="cls-1" d="M248.08,710.37c-1.08-.36-2.15-.74-3.23-1.11,1.07.37,2.15.75,3.23,1.11Z"/>
  <path class="cls-1" d="M239.69,707.43c-1.11-.41-2.22-.82-3.32-1.23,1.11.42,2.21.83,3.32,1.23Z"/>
  <path class="cls-1" d="M322.93,727.05c-.85-.1-1.7-.2-2.55-.31.85.1,1.7.21,2.55.31Z"/>
  <path class="cls-1" d="M332.1,727.98c-.85-.08-1.7-.16-2.55-.24.85.08,1.7.17,2.55.24Z"/>
  <path class="cls-1" d="M327.51,727.55c-.85-.09-1.7-.18-2.55-.27.85.09,1.7.19,2.55.27Z"/>
  <path class="cls-1" d="M336.71,728.36c-.81-.06-1.62-.13-2.44-.2.81.07,1.62.14,2.44.2Z"/>
  <path class="cls-1" d="M318.37,726.5c-.86-.11-1.72-.23-2.57-.34.86.11,1.71.23,2.57.34Z"/>
  <path class="cls-1" d="M309.31,725.24c-.9-.14-1.8-.28-2.69-.43.9.14,1.79.29,2.69.43Z"/>
  <path class="cls-1" d="M313.83,725.9c-.88-.12-1.76-.25-2.63-.38.88.13,1.75.26,2.63.38Z"/>
  <path class="cls-1" d="M355.32,729.3c-.82-.02-1.64-.05-2.47-.08.82.03,1.64.06,2.47.08Z"/>
  <path class="cls-1" d="M341.34,728.68c-.81-.05-1.61-.11-2.42-.17.81.06,1.61.12,2.42.17Z"/>
  <path class="cls-1" d="M256.57,713.12c-1.06-.33-2.11-.66-3.16-1,1.05.34,2.1.67,3.16,1Z"/>
  <path class="cls-1" d="M350.65,729.15c-.83-.03-1.65-.07-2.47-.11.82.04,1.65.08,2.47.11Z"/>
  <path class="cls-1" d="M345.99,728.95c-.81-.04-1.61-.09-2.42-.14.81.05,1.61.1,2.42.14Z"/>
  <path class="cls-1" d="M360.01,729.39c-.76,0-1.53-.03-2.29-.04.76.01,1.52.03,2.29.04Z"/>
  <path class="cls-1" d="M273.81,718c-.99-.25-1.98-.52-2.96-.78.99.26,1.97.53,2.96.78Z"/>
  <path class="cls-1" d="M269.47,716.86c-1-.27-2-.55-3-.83,1,.28,2,.56,3,.83Z"/>
  <path class="cls-1" d="M260.84,714.42c-1.04-.31-2.08-.63-3.11-.94,1.04.32,2.07.64,3.11.94Z"/>
  <path class="cls-1" d="M265.14,715.66c-1.02-.29-2.03-.59-3.05-.88,1.02.3,2.03.59,3.05.88Z"/>
  <path class="cls-1" d="M278.18,719.09c-.97-.24-1.94-.48-2.92-.73.97.24,1.94.49,2.92.73Z"/>
  <path class="cls-1" d="M300.31,723.75c-.89-.16-1.78-.33-2.67-.49.89.17,1.78.33,2.67.49Z"/>
  <path class="cls-1" d="M295.84,722.93c-.91-.17-1.82-.36-2.74-.54.91.18,1.82.37,2.74.54Z"/>
  <path class="cls-1" d="M304.8,724.52c-.89-.15-1.78-.3-2.67-.46.89.15,1.78.31,2.67.46Z"/>
  <path class="cls-1" d="M282.56,720.13c-.97-.22-1.93-.45-2.89-.68.96.23,1.93.46,2.89.68Z"/>
  <path class="cls-1" d="M291.4,722.05c-.93-.19-1.86-.39-2.79-.59.93.2,1.86.4,2.79.59Z"/>
  <path class="cls-1" d="M286.97,721.12c-.95-.21-1.89-.42-2.84-.63.95.21,1.89.43,2.84.63Z"/>
  <path class="cls-1" d="M728.53,339.16c.05.74.11,1.47.15,2.21-.05-.74-.1-1.47-.15-2.21Z"/>
  <path class="cls-1" d="M722.44,293.36c.17.86.34,1.72.51,2.58-.16-.86-.34-1.72-.51-2.58Z"/>
  <path class="cls-1" d="M725.56,311.48c.12.81.24,1.61.35,2.42-.11-.81-.23-1.61-.35-2.42Z"/>
  <path class="cls-1" d="M723.3,297.88c.16.84.31,1.68.46,2.52-.15-.84-.31-1.68-.46-2.52Z"/>
  <path class="cls-1" d="M231.4,704.29c-1.14-.45-2.28-.91-3.41-1.36,1.14.46,2.27.92,3.41,1.36Z"/>
  <path class="cls-1" d="M724.11,302.38c.14.84.29,1.67.43,2.51-.14-.84-.29-1.67-.43-2.51Z"/>
  <path class="cls-1" d="M724.86,306.89c.13.83.27,1.66.39,2.49-.13-.83-.26-1.66-.39-2.49Z"/>
  <path class="cls-1" d="M721.52,288.89c.18.87.37,1.75.55,2.62-.18-.88-.36-1.75-.55-2.62Z"/>
  <path class="cls-1" d="M716.13,266.84c.26.93.52,1.85.77,2.78-.25-.93-.51-1.86-.77-2.78Z"/>
  <path class="cls-1" d="M719.52,280c.21.9.43,1.79.63,2.69-.21-.9-.42-1.79-.63-2.69Z"/>
  <path class="cls-1" d="M713.6,258.15c.29.95.58,1.91.86,2.86-.28-.96-.57-1.91-.86-2.86Z"/>
  <path class="cls-1" d="M714.89,262.49c.27.94.55,1.88.81,2.82-.27-.94-.54-1.88-.81-2.82Z"/>
  <path class="cls-1" d="M717.32,271.21c.24.91.48,1.83.72,2.75-.23-.92-.48-1.83-.72-2.75Z"/>
  <path class="cls-1" d="M712.25,253.83c.31.97.62,1.94.92,2.92-.3-.97-.61-1.95-.92-2.92Z"/>
  <path class="cls-1" d="M718.45,275.59c.23.91.46,1.81.68,2.72-.22-.91-.45-1.81-.68-2.72Z"/>
  <path class="cls-1" d="M726.19,316.04c.11.8.22,1.6.32,2.4-.1-.8-.21-1.6-.32-2.4Z"/>
  <path class="cls-1" d="M729.24,353.37c.02.65.05,1.3.06,1.96-.02-.65-.04-1.3-.06-1.96Z"/>
  <path class="cls-1" d="M368.91.05c132.47,1.5,247.98,73.61,310.64,180.46C616.23,72.52,498.94,0,364.71,0h0c1.3,0,2.6.04,3.9.05.1,0,.2,0,.31,0Z"/>
  <path class="cls-1" d="M729.4,366.67c0,.26,0,.53,0,.79-1.47,198.7-161.81,359.57-360.3,361.91-.22,0-.44,0-.66,0-1.24.01-2.47.05-3.72.05-.78,0-1.55,0-2.33-.01.78,0,1.55.01,2.33.01,201.42,0,364.71-163.29,364.71-364.71h0c0,.65-.02,1.3-.02,1.96Z"/>
  <path class="cls-1" d="M729.06,348.53c.03.71.07,1.42.09,2.13-.03-.71-.06-1.42-.09-2.13Z"/>
  <path class="cls-1" d="M.03,367.17c0-.07,0-.15,0-.22,0-.75-.03-1.49-.03-2.24h0c0,140.3,79.22,262.09,195.37,323.1C79.91,627.16.95,506.43.03,367.17Z"/>
  <path class="cls-1" d="M729.36,358.52c0,.5.02.99.03,1.49,0-.5-.02-1-.03-1.49Z"/>
  <path class="cls-1" d="M726.77,320.6c.1.8.2,1.59.29,2.39-.09-.8-.19-1.59-.29-2.39Z"/>
  <path class="cls-1" d="M727.3,325.22c.08.78.17,1.56.25,2.34-.08-.78-.17-1.56-.25-2.34Z"/>
  <path class="cls-1" d="M728.83,343.84c.04.72.09,1.45.12,2.17-.04-.73-.08-1.45-.12-2.17Z"/>
  <path class="cls-1" d="M728.18,334.52c.06.74.13,1.48.18,2.23-.06-.74-.12-1.49-.18-2.23Z"/>
  <path class="cls-1" d="M727.77,329.87c.07.76.15,1.51.21,2.27-.07-.76-.14-1.52-.21-2.27Z"/>
  <path class="cls-1" d="M720.55,284.44c.2.88.4,1.76.59,2.64-.19-.88-.39-1.76-.59-2.64Z"/>
  <path class="cls-1" d="M679.56,180.53c.73,1.24,1.45,2.49,2.17,3.75-.72-1.25-1.44-2.5-2.17-3.75Z"/>
  <path class="cls-1" d="M203.19,691.79c-1.26-.62-2.52-1.26-3.77-1.9,1.25.64,2.51,1.27,3.77,1.9Z"/>
  <path class="cls-1" d="M199.27,689.82c-1.28-.65-2.55-1.31-3.82-1.98,1.27.67,2.55,1.33,3.82,1.98Z"/>
  <path class="cls-1" d="M681.78,184.37c.7,1.23,1.39,2.46,2.08,3.7-.69-1.24-1.38-2.47-2.08-3.7Z"/>
  <path class="cls-1" d="M686.09,192.15c.64,1.19,1.28,2.39,1.91,3.59-.63-1.2-1.26-2.4-1.91-3.59Z"/>
  <path class="cls-1" d="M683.96,188.25c.67,1.21,1.33,2.42,1.99,3.64-.66-1.22-1.32-2.43-1.99-3.64Z"/>
  <path class="cls-1" d="M219.16,699.22c-1.2-.52-2.39-1.05-3.58-1.59,1.19.53,2.38,1.06,3.58,1.59Z"/>
  <path class="cls-1" d="M223.21,700.95c-1.19-.5-2.37-1.01-3.55-1.52,1.18.51,2.36,1.02,3.55,1.52Z"/>
  <path class="cls-1" d="M227.29,702.64c-1.16-.47-2.32-.95-3.47-1.44,1.16.48,2.31.97,3.47,1.44Z"/>
  <path class="cls-1" d="M710.86,249.55c.33.99.65,1.97.97,2.96-.32-.99-.65-1.97-.97-2.96Z"/>
  <path class="cls-1" d="M211.12,695.6c-1.24-.57-2.47-1.16-3.69-1.74,1.23.59,2.46,1.17,3.69,1.74Z"/>
  <path class="cls-1" d="M207.14,693.72c-1.25-.6-2.49-1.2-3.73-1.82,1.24.61,2.48,1.22,3.73,1.82Z"/>
  <path class="cls-1" d="M215.12,697.43c-1.21-.55-2.42-1.1-3.63-1.66,1.21.56,2.41,1.11,3.63,1.66Z"/>
  <path class="cls-1" d="M688.17,196.07c.62,1.18,1.23,2.36,1.83,3.55-.6-1.19-1.21-2.37-1.83-3.55Z"/>
  <path class="cls-1" d="M704.77,232.65c.4,1.04.81,2.08,1.2,3.12-.39-1.04-.8-2.08-1.2-3.12Z"/>
  <path class="cls-1" d="M709.41,245.29c.35,1,.69,1.99,1.03,2.99-.34-1-.68-2-1.03-2.99Z"/>
  <path class="cls-1" d="M703.12,228.49c.42,1.05.85,2.1,1.26,3.16-.41-1.06-.84-2.11-1.26-3.16Z"/>
  <path class="cls-1" d="M690.21,200.03c.59,1.16,1.17,2.32,1.75,3.49-.58-1.17-1.16-2.33-1.75-3.49Z"/>
  <path class="cls-1" d="M707.92,241.06c.36,1.01.73,2.02,1.08,3.03-.36-1.01-.72-2.02-1.08-3.03Z"/>
  <path class="cls-1" d="M706.37,236.84c.38,1.02.77,2.05,1.14,3.08-.37-1.03-.76-2.05-1.14-3.08Z"/>
  <path class="cls-1" d="M701.42,224.34c.45,1.07.89,2.14,1.32,3.21-.44-1.07-.88-2.14-1.32-3.21Z"/>
  <path class="cls-1" d="M692.19,204.01c.56,1.15,1.12,2.3,1.68,3.45-.55-1.15-1.11-2.3-1.68-3.45Z"/>
  <path class="cls-1" d="M694.13,208.02c.54,1.13,1.08,2.27,1.6,3.41-.53-1.14-1.06-2.27-1.6-3.41Z"/>
  <path class="cls-1" d="M699.67,220.23c.47,1.08.93,2.17,1.39,3.25-.46-1.09-.92-2.17-1.39-3.25Z"/>
  <path class="cls-1" d="M696.03,212.06c.52,1.12,1.03,2.24,1.53,3.36-.5-1.12-1.02-2.24-1.53-3.36Z"/>
  <path class="cls-1" d="M697.88,216.13c.49,1.1.98,2.2,1.46,3.3-.48-1.1-.97-2.21-1.46-3.3Z"/>
  <path class="cls-1" d="M368.61.05c-1.3-.01-2.59-.05-3.9-.05-14.16,0-28.14.81-41.88,2.38-1.53.17-3.05.36-4.57.55-10.65,1.35-21.15,3.17-31.49,5.42-1.48.32-2.95.65-4.42.99-7.35,1.7-14.62,3.62-21.79,5.75s-14.26,4.48-21.24,7.04c-2.79,1.02-5.57,2.08-8.33,3.17s-5.5,2.21-8.23,3.36c-2.73,1.15-5.44,2.34-8.13,3.56-1.35.61-2.69,1.23-4.03,1.85-2.68,1.25-5.33,2.53-7.97,3.84-5.28,2.62-10.48,5.37-15.61,8.24-2.56,1.43-5.11,2.9-7.64,4.39-2.53,1.49-5.03,3.02-7.52,4.57-3.73,2.33-7.41,4.72-11.05,7.18-1.21.82-2.42,1.65-3.62,2.48-2.4,1.67-4.79,3.36-7.15,5.08-4.72,3.45-9.36,7-13.91,10.66-3.41,2.75-6.77,5.55-10.08,8.42-2.21,1.91-4.39,3.85-6.55,5.81-8.64,7.85-16.89,16.11-24.74,24.74-1.96,2.16-3.9,4.34-5.81,6.55-2.87,3.31-5.67,6.67-8.42,10.08-3.66,4.55-7.22,9.19-10.66,13.91-1.72,2.36-3.42,4.75-5.08,7.15-.83,1.2-1.66,2.41-2.48,3.62-2.46,3.64-4.85,7.32-7.18,11.05-1.55,2.49-3.08,4.99-4.57,7.52-1.49,2.53-2.96,5.07-4.39,7.64-2.87,5.13-5.61,10.34-8.24,15.61-1.31,2.64-2.59,5.3-3.84,7.97-.62,1.34-1.24,2.68-1.85,4.03-1.22,2.69-2.4,5.4-3.56,8.13-1.15,2.73-2.27,5.47-3.36,8.23-1.09,2.76-2.14,5.54-3.17,8.33-2.56,6.98-4.91,14.06-7.04,21.24s-4.05,14.44-5.75,21.79c-.34,1.47-.67,2.94-.99,4.42-2.25,10.34-4.06,20.85-5.42,31.49-.19,1.52-.38,3.05-.55,4.57-1.57,13.74-2.38,27.72-2.38,41.88,0,.75.02,1.49.03,2.24C200.97,362.35,363.11,200.76,368.61.05Z"/>
  <path class="cls-1" d="M368.91.05c5.42,198.01,163.31,357.92,360.48,366.61,0-.65.02-1.3.02-1.96,0-1.57,0-3.13-.03-4.7,0-.5-.02-1-.03-1.49-.02-1.06-.03-2.13-.06-3.19-.02-.65-.04-1.3-.06-1.96-.03-.9-.05-1.81-.09-2.71-.03-.71-.06-1.42-.09-2.13-.04-.84-.07-1.68-.11-2.52-.04-.73-.08-1.45-.12-2.17-.05-.82-.09-1.64-.14-2.47-.05-.74-.1-1.47-.15-2.21-.06-.8-.11-1.61-.17-2.41-.06-.74-.12-1.49-.18-2.23-.07-.79-.13-1.59-.2-2.38-.07-.76-.14-1.52-.21-2.27-.07-.77-.14-1.54-.22-2.31-.08-.78-.17-1.56-.25-2.34-.08-.74-.16-1.49-.24-2.23-.09-.8-.19-1.59-.29-2.39-.09-.72-.17-1.44-.26-2.16-.1-.8-.21-1.6-.32-2.4-.1-.71-.19-1.43-.29-2.14-.11-.81-.23-1.61-.35-2.42-.1-.7-.2-1.4-.31-2.09-.13-.83-.26-1.66-.39-2.49-.11-.67-.21-1.34-.32-2-.14-.84-.29-1.67-.43-2.51-.11-.66-.22-1.32-.34-1.97-.15-.84-.31-1.68-.46-2.52-.12-.65-.24-1.29-.36-1.94-.16-.86-.34-1.72-.51-2.58-.12-.62-.24-1.24-.37-1.86-.18-.88-.36-1.75-.55-2.62-.13-.6-.25-1.2-.38-1.8-.19-.88-.39-1.76-.59-2.64-.13-.59-.26-1.17-.39-1.76-.21-.9-.42-1.79-.63-2.69-.13-.56-.26-1.12-.4-1.69-.22-.91-.45-1.81-.68-2.72-.14-.55-.27-1.09-.41-1.64-.23-.92-.48-1.83-.72-2.75-.14-.53-.28-1.06-.42-1.59-.25-.93-.51-1.86-.77-2.78-.14-.51-.28-1.02-.42-1.53-.27-.94-.54-1.88-.81-2.82-.14-.49-.28-.98-.43-1.47-.28-.96-.57-1.91-.86-2.86-.14-.47-.28-.94-.43-1.4-.3-.97-.61-1.95-.92-2.92-.14-.44-.28-.88-.42-1.33-.32-.99-.65-1.97-.97-2.96-.14-.42-.28-.84-.42-1.26-.34-1-.68-2-1.03-2.99-.14-.4-.27-.8-.41-1.2-.36-1.01-.72-2.02-1.08-3.03-.14-.38-.27-.76-.41-1.14-.37-1.03-.76-2.05-1.14-3.08-.13-.36-.26-.71-.4-1.07-.39-1.04-.8-2.08-1.2-3.12-.13-.33-.26-.67-.39-1-.41-1.06-.84-2.11-1.26-3.16-.13-.31-.25-.63-.38-.94-.44-1.07-.88-2.14-1.32-3.21-.12-.29-.24-.57-.36-.86-.46-1.09-.92-2.17-1.39-3.25-.11-.26-.23-.53-.34-.79-.48-1.1-.97-2.21-1.46-3.3-.11-.24-.21-.48-.32-.71-.5-1.12-1.02-2.24-1.53-3.36-.1-.21-.19-.42-.29-.63-.53-1.14-1.06-2.27-1.6-3.41-.09-.19-.18-.37-.26-.56-.55-1.15-1.11-2.3-1.68-3.45-.08-.16-.16-.32-.24-.49-.58-1.17-1.16-2.33-1.75-3.49-.07-.14-.14-.28-.21-.42-.6-1.19-1.21-2.37-1.83-3.55-.06-.11-.12-.22-.17-.33-.63-1.2-1.26-2.4-1.91-3.59-.05-.09-.09-.18-.14-.26-.66-1.22-1.32-2.43-1.99-3.64-.03-.06-.07-.12-.1-.18-.69-1.24-1.38-2.47-2.08-3.7-.02-.03-.03-.06-.05-.09-.72-1.25-1.44-2.5-2.17-3.75,0,0,0-.01,0-.02C616.89,73.66,501.38,1.55,368.91.05Z"/>
  <path class="cls-1" d="M369.09,729.37c198.49-2.34,358.83-163.21,360.3-361.91-195.61,8.63-352.52,166.08-360.3,361.91Z"/>
  <path class="cls-1" d="M368.43,729.37C360.55,530.85,199.39,371.74.03,367.17c.92,139.26,79.88,259.99,195.34,320.63.02.01.05.02.07.04,1.27.67,2.55,1.33,3.82,1.98.05.02.1.05.15.07,1.25.64,2.51,1.27,3.77,1.9.08.04.15.07.23.11,1.24.61,2.48,1.22,3.73,1.82.09.04.19.09.28.13,1.23.59,2.46,1.17,3.69,1.74.13.06.25.11.38.17,1.21.56,2.41,1.11,3.63,1.66.15.07.3.13.45.2,1.19.53,2.38,1.06,3.58,1.59.17.07.34.14.51.22,1.18.51,2.36,1.02,3.55,1.52.2.09.41.17.61.25,1.16.48,2.31.97,3.47,1.44.23.09.46.19.69.28,1.14.46,2.27.92,3.41,1.36.26.1.51.2.77.3,1.12.44,2.24.87,3.36,1.3.28.11.56.21.84.31,1.11.42,2.21.83,3.32,1.23.3.11.6.21.9.32,1.09.4,2.19.79,3.28,1.17.33.11.65.22.98.34,1.07.37,2.15.75,3.23,1.11.35.12.7.23,1.04.35,1.06.35,2.12.71,3.19,1.05.36.12.73.23,1.1.35,1.05.34,2.1.67,3.16,1,.39.12.77.23,1.16.35,1.04.32,2.07.64,3.11.94.41.12.83.24,1.25.36,1.02.3,2.03.59,3.05.88.44.13.89.24,1.33.37,1,.28,2,.56,3,.83.46.12.92.24,1.38.36.99.26,1.97.53,2.96.78.48.12.97.24,1.45.36.97.24,1.94.49,2.92.73.5.12.99.24,1.49.35.96.23,1.93.46,2.89.68.52.12,1.04.23,1.57.35.95.21,1.89.43,2.84.63.55.12,1.09.23,1.64.35.93.2,1.86.4,2.79.59.57.12,1.14.22,1.71.34.91.18,1.82.37,2.74.54.6.11,1.2.22,1.8.33.89.17,1.78.33,2.67.49.6.11,1.21.21,1.82.31.89.15,1.78.31,2.67.46.6.1,1.21.19,1.81.29.9.14,1.79.29,2.69.43.63.1,1.26.18,1.89.28.88.13,1.75.26,2.63.38.66.09,1.32.18,1.97.26.86.11,1.71.23,2.57.34.67.08,1.34.16,2.01.24.85.1,1.7.21,2.55.31.67.08,1.35.15,2.03.22.85.09,1.7.19,2.55.27.68.07,1.36.13,2.04.19.85.08,1.7.17,2.55.24.72.06,1.45.12,2.17.18.81.07,1.62.14,2.44.2.73.06,1.47.1,2.21.15.81.06,1.61.12,2.42.17.74.05,1.48.08,2.22.13.81.05,1.61.1,2.42.14.73.04,1.46.06,2.19.1.82.04,1.65.08,2.47.11.73.03,1.47.05,2.21.07.82.03,1.64.06,2.47.08.8.02,1.6.03,2.4.05.76.01,1.52.03,2.29.04.79.01,1.58.01,2.37.02.78,0,1.55.01,2.33.01,1.24,0,2.48-.03,3.72-.05Z"/>
</svg>