<svg xmlns="http://www.w3.org/2000/svg" viewBox="0 0 1200 630">
  <defs>
    <linearGradient id="bg2" x1="0%" y1="0%" x2="100%" y2="100%">
      <stop offset="0%" style="stop-color:#272426"/>
      <stop offset="100%" style="stop-color:#141213"/>
    </linearGradient>
    <linearGradient id="card1" x1="0%" y1="0%" x2="100%" y2="100%">
      <stop offset="0%" style="stop-color:#ff5f5f"/>
      <stop offset="100%" style="stop-color:#ff8f8f"/>
    </linearGradient>
    <linearGradient id="card2" x1="0%" y1="0%" x2="100%" y2="100%">
      <stop offset="0%" style="stop-color:#a855f7"/>
      <stop offset="100%" style="stop-color:#c084fc"/>
    </linearGradient>
    <linearGradient id="card3" x1="0%" y1="0%" x2="100%" y2="100%">
      <stop offset="0%" style="stop-color:#3b82f6"/>
      <stop offset="100%" style="stop-color:#60a5fa"/>
    </linearGradient>
    <linearGradient id="card4" x1="0%" y1="0%" x2="100%" y2="100%">
      <stop offset="0%" style="stop-color:#22c55e"/>
      <stop offset="100%" style="stop-color:#4ade80"/>
    </linearGradient>
  </defs>
  <rect width="1200" height="630" fill="url(#bg2)"/>
  
  <!-- Portfolio grid -->
  <g transform="translate(150, 80)">
    <!-- Row 1 -->
    <rect x="0" y="0" width="200" height="140" rx="8" fill="url(#card1)" opacity="0.9"/>
    <rect x="220" y="0" width="200" height="140" rx="8" fill="url(#card2)" opacity="0.9"/>
    <rect x="440" y="0" width="200" height="140" rx="8" fill="url(#card3)" opacity="0.9"/>
    <rect x="660" y="0" width="200" height="140" rx="8" fill="url(#card4)" opacity="0.9"/>
    
    <!-- Row 2 -->
    <rect x="0" y="160" width="200" height="140" rx="8" fill="url(#card3)" opacity="0.9"/>
    <rect x="220" y="160" width="200" height="140" rx="8" fill="url(#card4)" opacity="0.9"/>
    <rect x="440" y="160" width="200" height="140" rx="8" fill="url(#card1)" opacity="0.9"/>
    <rect x="660" y="160" width="200" height="140" rx="8" fill="url(#card2)" opacity="0.9"/>
    
    <!-- Browser chrome on cards -->
    <g fill="#EDE8DC" opacity="0.5">
      <circle cx="20" cy="15" r="4"/><circle cx="35" cy="15" r="4"/><circle cx="50" cy="15" r="4"/>
      <circle cx="240" cy="15" r="4"/><circle cx="255" cy="15" r="4"/><circle cx="270" cy="15" r="4"/>
      <circle cx="460" cy="15" r="4"/><circle cx="475" cy="15" r="4"/><circle cx="490" cy="15" r="4"/>
      <circle cx="680" cy="15" r="4"/><circle cx="695" cy="15" r="4"/><circle cx="710" cy="15" r="4"/>
      <circle cx="20" cy="175" r="4"/><circle cx="35" cy="175" r="4"/><circle cx="50" cy="175" r="4"/>
      <circle cx="240" cy="175" r="4"/><circle cx="255" cy="175" r="4"/><circle cx="270" cy="175" r="4"/>
      <circle cx="460" cy="175" r="4"/><circle cx="475" cy="175" r="4"/><circle cx="490" cy="175" r="4"/>
      <circle cx="680" cy="175" r="4"/><circle cx="695" cy="175" r="4"/><circle cx="710" cy="175" r="4"/>
    </g>
    
    <!-- Content placeholders -->
    <g fill="#EDE8DC" opacity="0.3">
      <rect x="15" y="40" width="170" height="8" rx="4"/>
      <rect x="15" y="55" width="120" height="8" rx="4"/>
      <rect x="235" y="40" width="170" height="8" rx="4"/>
      <rect x="235" y="55" width="100" height="8" rx="4"/>
      <rect x="455" y="40" width="170" height="8" rx="4"/>
      <rect x="455" y="55" width="140" height="8" rx="4"/>
      <rect x="675" y="40" width="170" height="8" rx="4"/>
      <rect x="675" y="55" width="110" height="8" rx="4"/>
    </g>
  </g>
  
  <!-- Big "10" -->
  <text x="600" y="480" fill="#EDE8DC" font-family="system-ui" font-size="120" font-weight="800" text-anchor="middle" opacity="0.15">10</text>
  
  <!-- Text -->
  <text x="600" y="540" fill="#EDE8DC" font-family="system-ui" font-size="28" font-weight="600" text-anchor="middle">Portfolio Websites You Can Build Today</text>
  <text x="600" y="580" fill="#EDE8DC" font-family="system-ui" font-size="18" text-anchor="middle" opacity="0.7">youmake.dev</text>
</svg>