<svg width="1200" height="630" viewBox="0 0 1200 630" fill="none" xmlns="http://www.w3.org/2000/svg">
  <defs>
    <linearGradient id="cai-bg" x1="0%" y1="0%" x2="100%" y2="100%">
      <stop offset="0%" style="stop-color:#0f172a"/>
      <stop offset="100%" style="stop-color:#1e293b"/>
    </linearGradient>
  </defs>
  <rect width="1200" height="630" fill="url(#cai-bg)"/>

  <!-- Shield icon -->
  <path d="M600 100 L720 160 L720 320 C720 420 600 500 600 500 C600 500 480 420 480 320 L480 160 Z" fill="none" stroke="#22c55e" stroke-width="4"/>
  <path d="M600 130 L690 175 L690 310 C690 390 600 455 600 455 C600 455 510 390 510 310 L510 175 Z" fill="#22c55e" opacity="0.15"/>

  <!-- Checkmark inside shield -->
  <path d="M550 290 L580 330 L660 240" stroke="#22c55e" stroke-width="8" stroke-linecap="round" stroke-linejoin="round" fill="none"/>

  <!-- Constitution text blocks -->
  <rect x="100" y="180" width="280" height="120" rx="10" fill="#21262d" stroke="#3b82f6" stroke-width="1"/>
  <text x="240" y="215" font-family="system-ui" font-size="14" fill="#3b82f6" text-anchor="middle" font-weight="600">Helpful</text>
  <text x="240" y="245" font-family="system-ui" font-size="11" fill="#94a3b8" text-anchor="middle">Provide useful assistance</text>
  <text x="240" y="265" font-family="system-ui" font-size="11" fill="#94a3b8" text-anchor="middle">Answer questions accurately</text>
  <text x="240" y="285" font-family="system-ui" font-size="11" fill="#94a3b8" text-anchor="middle">Be genuinely informative</text>

  <rect x="100" y="330" width="280" height="120" rx="10" fill="#21262d" stroke="#f59e0b" stroke-width="1"/>
  <text x="240" y="365" font-family="system-ui" font-size="14" fill="#f59e0b" text-anchor="middle" font-weight="600">Harmless</text>
  <text x="240" y="395" font-family="system-ui" font-size="11" fill="#94a3b8" text-anchor="middle">Avoid harmful outputs</text>
  <text x="240" y="415" font-family="system-ui" font-size="11" fill="#94a3b8" text-anchor="middle">Respect user safety</text>
  <text x="240" y="435" font-family="system-ui" font-size="11" fill="#94a3b8" text-anchor="middle">Decline dangerous requests</text>

  <rect x="820" y="180" width="280" height="120" rx="10" fill="#21262d" stroke="#8b5cf6" stroke-width="1"/>
  <text x="960" y="215" font-family="system-ui" font-size="14" fill="#8b5cf6" text-anchor="middle" font-weight="600">Honest</text>
  <text x="960" y="245" font-family="system-ui" font-size="11" fill="#94a3b8" text-anchor="middle">Express uncertainty</text>
  <text x="960" y="265" font-family="system-ui" font-size="11" fill="#94a3b8" text-anchor="middle">Acknowledge limitations</text>
  <text x="960" y="285" font-family="system-ui" font-size="11" fill="#94a3b8" text-anchor="middle">Avoid deception</text>

  <rect x="820" y="330" width="280" height="120" rx="10" fill="#21262d" stroke="#ec4899" stroke-width="1"/>
  <text x="960" y="365" font-family="system-ui" font-size="14" fill="#ec4899" text-anchor="middle" font-weight="600">Reduced Hallucinations</text>
  <text x="960" y="395" font-family="system-ui" font-size="11" fill="#94a3b8" text-anchor="middle">30-40% fewer errors</text>
  <text x="960" y="415" font-family="system-ui" font-size="11" fill="#94a3b8" text-anchor="middle">Better calibration</text>
  <text x="960" y="435" font-family="system-ui" font-size="11" fill="#94a3b8" text-anchor="middle">Verified accuracy</text>

  <!-- Connecting lines to shield -->
  <line x1="380" y1="240" x2="480" y2="280" stroke="#3b82f6" stroke-width="1" stroke-dasharray="5,5" opacity="0.5"/>
  <line x1="380" y1="390" x2="480" y2="340" stroke="#f59e0b" stroke-width="1" stroke-dasharray="5,5" opacity="0.5"/>
  <line x1="820" y1="240" x2="720" y2="280" stroke="#8b5cf6" stroke-width="1" stroke-dasharray="5,5" opacity="0.5"/>
  <line x1="820" y1="390" x2="720" y2="340" stroke="#ec4899" stroke-width="1" stroke-dasharray="5,5" opacity="0.5"/>

  <!-- Bottom label -->
  <text x="600" y="560" font-family="system-ui" font-size="24" fill="#e5e7eb" text-anchor="middle" font-weight="bold">Constitutional AI</text>
  <text x="600" y="590" font-family="system-ui" font-size="14" fill="#94a3b8" text-anchor="middle">Principled AI Training for Safety &amp; Reliability</text>
</svg>
