<svg width="1200" height="630" viewBox="0 0 1200 630" fill="none" xmlns="http://www.w3.org/2000/svg">
  <defs>
    <linearGradient id="ctx-bg" x1="0%" y1="0%" x2="100%" y2="100%">
      <stop offset="0%" style="stop-color:#0d1b2a"/>
      <stop offset="100%" style="stop-color:#1b263b"/>
    </linearGradient>
  </defs>
  <rect width="1200" height="630" fill="url(#ctx-bg)"/>
  <!-- Document stack representation -->
  <rect x="300" y="150" width="250" height="330" rx="8" fill="#415a77" opacity="0.3" transform="rotate(-5 425 315)"/>
  <rect x="320" y="140" width="250" height="330" rx="8" fill="#415a77" opacity="0.5" transform="rotate(-2 445 305)"/>
  <rect x="340" y="130" width="250" height="330" rx="8" fill="#415a77" opacity="0.7"/>
  <!-- Document lines -->
  <rect x="365" y="170" width="180" height="8" rx="4" fill="#778da9" opacity="0.6"/>
  <rect x="365" y="195" width="150" height="8" rx="4" fill="#778da9" opacity="0.5"/>
  <rect x="365" y="220" width="200" height="8" rx="4" fill="#778da9" opacity="0.6"/>
  <rect x="365" y="245" width="120" height="8" rx="4" fill="#778da9" opacity="0.5"/>
  <rect x="365" y="290" width="180" height="8" rx="4" fill="#778da9" opacity="0.6"/>
  <rect x="365" y="315" width="160" height="8" rx="4" fill="#778da9" opacity="0.5"/>
  <rect x="365" y="340" width="190" height="8" rx="4" fill="#778da9" opacity="0.6"/>
  <rect x="365" y="365" width="140" height="8" rx="4" fill="#778da9" opacity="0.5"/>
  <!-- Arrow indicating expansion -->
  <path d="M620 315 L720 315" stroke="#e0e1dd" stroke-width="3" stroke-linecap="round"/>
  <path d="M700 295 L720 315 L700 335" stroke="#e0e1dd" stroke-width="3" stroke-linecap="round" stroke-linejoin="round" fill="none"/>
  <!-- Expanded context visualization -->
  <rect x="750" y="100" width="300" height="430" rx="8" fill="#415a77" opacity="0.7"/>
  <rect x="775" y="140" width="250" height="8" rx="4" fill="#e0e1dd" opacity="0.6"/>
  <rect x="775" y="165" width="220" height="8" rx="4" fill="#e0e1dd" opacity="0.5"/>
  <rect x="775" y="190" width="240" height="8" rx="4" fill="#e0e1dd" opacity="0.6"/>
  <!-- Many more lines showing extended content -->
  <rect x="775" y="230" width="200" height="6" rx="3" fill="#778da9" opacity="0.4"/>
  <rect x="775" y="250" width="230" height="6" rx="3" fill="#778da9" opacity="0.4"/>
  <rect x="775" y="270" width="180" height="6" rx="3" fill="#778da9" opacity="0.4"/>
  <rect x="775" y="290" width="250" height="6" rx="3" fill="#778da9" opacity="0.4"/>
  <rect x="775" y="310" width="210" height="6" rx="3" fill="#778da9" opacity="0.4"/>
  <rect x="775" y="330" width="190" height="6" rx="3" fill="#778da9" opacity="0.4"/>
  <rect x="775" y="350" width="240" height="6" rx="3" fill="#778da9" opacity="0.4"/>
  <rect x="775" y="370" width="170" height="6" rx="3" fill="#778da9" opacity="0.4"/>
  <rect x="775" y="390" width="220" height="6" rx="3" fill="#778da9" opacity="0.4"/>
  <rect x="775" y="410" width="200" height="6" rx="3" fill="#778da9" opacity="0.4"/>
  <rect x="775" y="430" width="235" height="6" rx="3" fill="#778da9" opacity="0.4"/>
  <rect x="775" y="450" width="185" height="6" rx="3" fill="#778da9" opacity="0.4"/>
  <rect x="775" y="470" width="210" height="6" rx="3" fill="#778da9" opacity="0.4"/>
  <!-- Token counter -->
  <text x="900" y="560" font-family="monospace" font-size="18" fill="#e0e1dd" text-anchor="middle" opacity="0.8">200K+ tokens</text>
</svg>
