<svg xmlns="http://www.w3.org/2000/svg" viewBox="0 0 1200 630">
  <defs>
    <linearGradient id="bg1" x1="0%" y1="0%" x2="100%" y2="100%">
      <stop offset="0%" style="stop-color:#272426"/>
      <stop offset="100%" style="stop-color:#141213"/>
    </linearGradient>
    <linearGradient id="accent1" x1="0%" y1="0%" x2="100%" y2="0%">
      <stop offset="0%" style="stop-color:#ff5f5f"/>
      <stop offset="50%" style="stop-color:#a855f7"/>
      <stop offset="100%" style="stop-color:#3b82f6"/>
    </linearGradient>
  </defs>
  <rect width="1200" height="630" fill="url(#bg1)"/>
  
  <!-- Rocket icon -->
  <g transform="translate(600, 200)">
    <path d="M0,-80 L20,-40 L20,20 L10,40 L10,20 L-10,20 L-10,40 L-20,20 L-20,-40 Z" fill="url(#accent1)" opacity="0.9"/>
    <circle cx="0" cy="-30" r="15" fill="#EDE8DC"/>
    <path d="M-25,10 Q-40,30 -30,50" stroke="url(#accent1)" stroke-width="4" fill="none"/>
    <path d="M25,10 Q40,30 30,50" stroke="url(#accent1)" stroke-width="4" fill="none"/>
    <!-- Flame -->
    <path d="M-10,40 Q0,70 10,40" fill="#ff5f5f" opacity="0.8"/>
    <path d="M-5,40 Q0,60 5,40" fill="#ffaa00"/>
  </g>
  
  <!-- Timeline dots -->
  <g transform="translate(200, 420)">
    <circle cx="0" cy="0" r="12" fill="#EDE8DC"/>
    <circle cx="200" cy="0" r="12" fill="#EDE8DC"/>
    <circle cx="400" cy="0" r="12" fill="#EDE8DC"/>
    <circle cx="600" cy="0" r="12" fill="#EDE8DC"/>
    <circle cx="800" cy="0" r="12" fill="url(#accent1)"/>
    <line x1="12" y1="0" x2="788" y2="0" stroke="#EDE8DC" stroke-width="2" stroke-dasharray="5,5"/>
    <text x="0" y="35" fill="#EDE8DC" font-family="system-ui" font-size="14" text-anchor="middle">Idea</text>
    <text x="200" y="35" fill="#EDE8DC" font-family="system-ui" font-size="14" text-anchor="middle">Describe</text>
    <text x="400" y="35" fill="#EDE8DC" font-family="system-ui" font-size="14" text-anchor="middle">Build</text>
    <text x="600" y="35" fill="#EDE8DC" font-family="system-ui" font-size="14" text-anchor="middle">Test</text>
    <text x="800" y="35" fill="#EDE8DC" font-family="system-ui" font-size="14" text-anchor="middle">Deploy</text>
  </g>
  
  <!-- Text -->
  <text x="600" y="540" fill="#EDE8DC" font-family="system-ui" font-size="28" font-weight="600" text-anchor="middle">5 Minutes: Idea → Production</text>
  <text x="600" y="580" fill="#EDE8DC" font-family="system-ui" font-size="18" text-anchor="middle" opacity="0.7">youmake.dev</text>
</svg>